# xmcd
#
# Track frame offsets:
#	150
#	15908
#	33850
#	46706
#	65540
#	75097
#	91808
#	104079
#	118067
#	135903
#	152370
#
# Disc length: 2204 seconds
#
# Revision: 1
# Processed by: cddbd v1.4PL0 Copyright (c) Steve Scherf et al.
# Submitted via: audiograbber 1.82.02
#
DISCID=6e089a0b
DTITLE=Various Artist - 2002 Muster Blues Collection
DYEAR=1900
DGENRE=
TTITLE0=Chris Wilson - Go Go Gaugin
TTITLE1=Andy Cowan - Just Can't Hold On
TTITLE2=Fiona Boyes - She Could Play That Thing
TTITLE3=Pete Wells, Angry Anderson and The Damn Fine Band - Goin' Down
TTITLE4=Lil' Fi - Celebrate The Curves
TTITLE5=Ewan Mackenzie Band - Beck and Call
TTITLE6=Jan Preston - Turn Me On
TTITLE7=Carl Lynch and Second Skin - Pumpin Super
TTITLE8=Ward's Xpress - The Counsellor's Theme
TTITLE9=Fred James - Fool Never Learns
TTITLE10=James T - Hey Natalie
EXTD=
EXTT0=
EXTT1=
EXTT2=
EXTT3=
EXTT4=
EXTT5=
EXTT6=
EXTT7=
EXTT8=
EXTT9=
EXTT10=
PLAYORDER=
